<?xml version="1.0" standalone="no"?>
<!DOCTYPE svg PUBLIC "-//W3C//DTD SVG 20010904//EN"
 "http://www.w3.org/TR/2001/REC-SVG-20010904/DTD/svg10.dtd">
<svg version="1.0" xmlns="http://www.w3.org/2000/svg"
 width="3011.000000pt" height="3203.000000pt" viewBox="0 0 3011.000000 3203.000000"
 preserveAspectRatio="xMidYMid meet">

<g transform="translate(0.000000,3203.000000) scale(0.100000,-0.100000)"
fill="#000000" stroke="none">
<path d="M14719 28889 c-1953 -38 -3850 -346 -5490 -892 -693 -231 -1219 -447
-1811 -743 -410 -205 -641 -332 -953 -527 -791 -493 -1445 -1031 -2020 -1659
-1514 -1654 -2543 -4028 -2989 -6898 -204 -1307 -294 -2967 -211 -3868 111
-1196 480 -2606 1100 -4197 636 -1633 1499 -3327 2328 -4569 596 -893 1298
-1690 2012 -2282 981 -813 2131 -1392 3430 -1724 430 -110 767 -181 1185 -250
1054 -172 2175 -251 3605 -254 676 -1 774 3 1220 50 833 87 1657 267 2615 571
1849 585 3988 1688 5455 2811 1810 1387 3114 3085 3927 5117 632 1580 960
3378 961 5280 1 524 -15 777 -78 1220 -188 1320 -699 2730 -1669 4605 -537
1037 -803 1505 -1192 2101 -957 1466 -2143 2731 -3468 3699 -1938 1416 -4179
2225 -6608 2385 -198 13 -897 37 -953 33 -11 -1 -189 -5 -396 -9z m2910 -925
c57 -48 136 -242 176 -434 71 -340 100 -924 92 -1830 -5 -579 -11 -717 -42
-1135 -79 -1029 -272 -1859 -577 -2470 -90 -182 -173 -304 -295 -440 -419
-463 -1076 -818 -1723 -930 -252 -44 -628 -59 -871 -35 -483 48 -1086 228
-1341 402 -83 56 -216 185 -293 283 -269 343 -445 839 -517 1450 -19 167 -16
600 6 758 37 269 105 483 205 647 33 52 98 169 146 260 257 485 424 720 729
1025 582 582 2213 1678 3348 2250 139 70 260 124 312 139 155 45 394 83 533
85 74 1 84 -1 112 -25z m-9549 -8064 c93 -10 210 -37 220 -50 3 -4 30 -15 60
-25 201 -66 386 -178 530 -324 186 -188 294 -394 362 -696 l22 -100 3 -2582 3
-2583 -365 0 -365 0 -3 2503 c-3 2316 -4 2508 -20 2587 -43 210 -101 334 -207
441 -81 83 -152 123 -270 155 -89 24 -281 24 -370 0 -272 -74 -437 -300 -485
-662 -13 -100 -15 -436 -15 -2570 l0 -2454 -357 2 -358 3 -3 2465 c-2 1521 1
2521 7 2610 20 292 86 498 229 715 139 209 356 377 617 475 55 21 116 41 135
45 l35 7 -25 -28 c-69 -78 -69 -79 20 -31 96 52 149 73 235 92 72 16 236 18
365 5z m12134 -5 c686 -90 1062 -483 1126 -1175 8 -83 10 -279 7 -580 -5 -490
-5 -497 -64 -675 -65 -201 -189 -380 -346 -501 l-39 -30 54 -34 c70 -44 194
-169 243 -245 74 -113 123 -249 145 -400 6 -44 10 -566 10 -1392 l0 -1323
-345 0 -344 0 -3 1303 -3 1302 -22 78 c-49 171 -143 260 -328 310 -103 28
-267 37 -672 37 l-393 0 0 -1515 0 -1515 -350 0 -350 0 0 3185 0 3185 779 0
c638 0 801 -3 895 -15z m3316 -3170 l0 -3185 -350 0 -350 0 0 3185 0 3185 350
0 350 0 0 -3185z m-12090 675 c0 -1704 3 -2531 11 -2596 37 -335 157 -498 419
-570 53 -15 104 -18 270 -19 231 0 280 8 410 72 170 83 259 244 289 525 8 66
11 898 11 2593 l0 2495 350 0 350 0 -3 -2622 c-3 -2890 2 -2643 -63 -2887 -81
-308 -281 -554 -565 -694 -237 -116 -591 -172 -944 -148 -699 48 -1071 358
-1202 1001 -16 79 -17 273 -20 2718 l-3 2632 345 0 345 0 0 -2500z m5980 2170
l0 -330 -515 0 -515 0 -2 -2847 -3 -2848 -350 0 -350 0 -3 2848 -2 2847 -520
0 -520 0 0 330 0 330 1390 0 1390 0 0 -330z m-10332 -9577 l2 -2543 733 -2
732 -3 3 -298 2 -297 -1047 2 -1048 3 -3 2830 c-1 1557 0 2836 3 2843 3 10 71
12 312 10 l308 -3 3 -2542z m4020 2521 c245 -35 456 -128 609 -267 159 -146
265 -360 316 -642 l22 -120 0 -2315 0 -2315 -312 -3 -313 -2 0 1325 0 1325
-630 0 -630 0 0 -1325 0 -1325 -310 0 -310 0 0 2253 c0 1471 4 2294 11 2372
51 594 321 916 859 1025 195 40 467 45 688 14z m3824 3 c477 -79 769 -317 897
-732 69 -224 65 -108 69 -1990 3 -1800 1 -1902 -42 -2095 -52 -231 -130 -377
-280 -525 -194 -192 -417 -285 -756 -315 -64 -5 -414 -10 -782 -10 l-668 0 0
2846 0 2846 733 -5 c610 -3 748 -7 829 -20z m3838 0 c536 -94 829 -378 936
-907 16 -78 18 -226 22 -1835 4 -1857 3 -1905 -43 -2094 -110 -452 -395 -709
-895 -807 -73 -15 -188 -18 -837 -21 l-753 -4 0 2839 c0 1561 3 2842 7 2846 5
4 339 6 743 3 591 -4 752 -8 820 -20z m2870 -2170 c0 -2251 2 -2373 40 -2524
53 -204 178 -319 391 -359 104 -20 374 -14 458 10 190 54 296 171 347 386 17
71 18 198 21 2373 l3 2297 315 0 315 0 -2 -2337 c-4 -2613 2 -2401 -74 -2632
-44 -134 -89 -218 -168 -317 -164 -204 -411 -329 -743 -376 -132 -18 -477 -16
-593 5 -289 50 -482 145 -639 313 -146 157 -225 337 -266 609 -13 87 -15 409
-15 2418 l0 2317 305 0 305 0 0 -2183z m-13298 -5011 c4 -6 8 -150 8 -321 0
-170 3 -366 6 -435 3 -69 1 -131 -3 -137 -5 -7 -43 -16 -85 -19 -73 -7 -75 -6
-81 17 -4 13 -7 221 -7 461 0 406 1 438 18 448 21 13 134 2 144 -14z m1514
-11 c58 -28 122 -92 152 -152 43 -83 56 -152 55 -283 -1 -144 -20 -217 -81
-308 -45 -68 -103 -106 -194 -127 -75 -17 -255 -25 -275 -12 -10 6 -13 106
-13 441 0 330 3 436 13 448 17 23 47 27 176 23 98 -4 123 -8 167 -30z m675 17
c4 -4 9 -208 13 -455 8 -511 18 -460 -93 -461 l-66 -1 -8 180 c-4 99 -6 305
-5 458 3 234 5 279 18 288 16 10 130 3 141 -9z m2907 -64 l3 -78 -109 0 c-127
0 -122 5 -122 -117 l0 -72 107 -3 107 -3 10 -32 c5 -20 5 -50 0 -75 l-9 -43
-105 -5 -105 -5 -3 -117 -3 -118 104 0 c78 0 108 -4 116 -14 7 -9 11 -41 9
-82 l-3 -68 -40 -9 c-59 -13 -322 -4 -338 12 -9 9 -12 112 -10 449 2 404 4
438 20 450 13 9 62 12 193 10 l175 -3 3 -77z m1547 2 l0 -75 -110 -5 -110 -5
-5 -65 c-3 -36 -4 -77 -2 -92 l4 -27 107 -3 106 -3 3 -63 c2 -38 -2 -69 -9
-78 -8 -10 -37 -14 -110 -14 l-99 0 0 -120 0 -120 99 0 c122 0 131 -6 131 -89
0 -86 -1 -86 -207 -86 -144 0 -175 3 -183 15 -6 9 -10 192 -10 447 0 382 2
433 16 448 14 13 42 15 197 13 l182 -3 0 -75z m1653 64 c19 -13 22 -24 22 -84
l0 -68 -94 5 c-51 3 -105 3 -120 -1 -44 -11 -101 -71 -132 -138 -38 -84 -40
-207 -6 -317 32 -103 79 -152 151 -159 l52 -5 -3 94 -3 94 -40 5 -40 5 0 60 0
60 120 0 120 0 0 -222 c0 -139 -4 -226 -10 -232 -6 -6 -49 -14 -96 -17 -73 -6
-98 -3 -160 15 -65 20 -80 30 -139 89 -255 258 -170 696 159 817 52 20 191 19
219 -1z m2031 -21 c48 -24 60 -37 86 -88 25 -49 30 -70 30 -130 0 -66 -3 -74
-38 -124 l-39 -53 36 -33 c46 -42 66 -90 73 -174 10 -123 -55 -232 -158 -266
-51 -17 -262 -25 -277 -11 -10 10 -9 876 1 900 7 18 16 19 119 13 96 -5 120
-10 167 -34z m3074 16 c32 -14 34 -39 10 -101 -22 -59 -26 -62 -61 -44 -44 23
-107 21 -132 -4 -26 -26 -27 -104 -2 -141 9 -14 54 -58 99 -98 45 -39 94 -86
107 -104 83 -109 89 -251 13 -343 -47 -57 -116 -84 -212 -83 -86 0 -171 23
-188 50 -12 20 18 128 38 135 8 3 28 -4 45 -16 63 -45 147 -43 191 3 17 18 20
32 17 79 l-4 58 -121 117 c-67 65 -129 133 -138 152 -20 40 -23 127 -6 189 19
69 89 136 171 163 33 11 139 3 173 -12z m-12886 -104 c125 -307 165 -401 175
-410 7 -7 9 74 6 255 l-3 265 75 0 75 0 3 -454 c2 -357 0 -456 -10 -463 -21
-12 -114 -9 -125 5 -6 6 -59 127 -119 267 l-109 255 -5 -265 -5 -265 -75 0
-75 0 -3 449 c-2 331 1 452 9 463 9 10 30 13 76 11 l65 -3 45 -110z m2357 98
c3 -10 37 -166 75 -348 38 -181 80 -375 93 -431 14 -55 22 -106 20 -112 -2 -8
-28 -12 -72 -12 l-68 0 -22 65 -22 66 -91 -3 -91 -3 -11 -50 c-16 -74 -18 -75
-96 -75 -67 0 -69 1 -69 25 0 13 36 187 80 387 44 200 88 396 96 436 l16 72
78 0 c66 0 80 -3 84 -17z m674 -55 c153 -373 186 -449 194 -454 6 -4 7 90 2
260 l-7 267 79 -3 79 -3 3 -454 c2 -357 0 -456 -10 -463 -7 -4 -37 -8 -65 -8
-44 0 -55 4 -67 23 -7 12 -60 132 -117 267 l-104 244 -5 -264 -5 -265 -75 0
-75 0 -3 449 c-1 323 1 453 9 462 7 9 33 14 74 14 l63 0 30 -72z m2040 0 c153
-372 186 -449 194 -454 5 -3 6 99 2 261 l-7 266 79 -3 79 -3 3 -454 c2 -357 0
-456 -10 -463 -7 -4 -37 -8 -65 -8 -44 0 -55 4 -67 23 -8 12 -61 132 -118 266
l-103 245 -5 -265 -5 -264 -75 0 -75 0 -3 449 c-1 323 1 453 9 462 7 9 33 14
74 14 l63 0 30 -72z m1699 51 c86 -41 136 -132 136 -244 0 -89 -18 -131 -88
-204 l-56 -59 96 -192 c52 -105 93 -196 89 -201 -3 -5 -43 -9 -89 -9 l-83 0
-15 38 c-42 104 -151 322 -158 315 -5 -5 -10 -85 -11 -178 l-3 -170 -72 -3
-73 -3 0 459 c0 252 3 462 7 465 3 4 67 7 142 7 116 0 141 -3 178 -21z m1515
4 c8 -10 25 -47 38 -83 39 -111 92 -231 99 -225 3 4 37 77 76 163 l70 157 73
3 c67 3 72 1 72 -17 0 -27 -41 -128 -131 -326 l-73 -160 -6 -210 -5 -210 -75
0 -75 0 -5 210 -5 210 -66 145 c-37 80 -87 187 -112 239 -25 52 -43 101 -40
108 8 21 146 18 165 -4z m2417 -334 c41 -193 84 -394 97 -447 14 -53 22 -102
20 -109 -4 -9 -28 -13 -75 -13 l-69 0 -22 65 -22 66 -91 -3 -92 -3 -8 -50
c-12 -70 -19 -75 -98 -75 -63 0 -69 2 -69 21 0 11 38 195 85 407 47 213 91
411 97 440 l11 52 82 0 81 0 73 -351z m583 349 c1 -2 5 -174 8 -383 l5 -380
95 -1 c52 0 101 -1 108 -2 8 -1 12 -24 12 -76 l0 -74 -175 -7 c-96 -4 -181 -5
-188 -2 -12 4 -16 82 -22 445 -4 242 -4 449 0 461 6 19 14 21 81 21 41 0 75
-1 76 -2z m695 -10 c4 -7 8 -179 8 -383 l0 -370 102 0 c61 0 106 -4 113 -11 6
-6 10 -38 8 -75 l-3 -64 -120 -8 c-66 -4 -151 -6 -190 -5 l-70 3 -3 450 c-1
248 0 456 3 463 3 8 28 12 74 12 45 0 73 -4 78 -12z"/>
<path d="M17165 27844 c-236 -57 -355 -110 -660 -294 -286 -172 -955 -593
-950 -598 6 -6 450 213 710 350 373 197 935 508 980 542 l20 15 -20 0 c-11 0
-47 -7 -80 -15z"/>
<path d="M17515 27743 c17 -41 18 -209 1 -265 -19 -68 -20 -98 -3 -98 8 0 39
18 70 40 65 47 73 70 57 161 -20 109 -64 179 -113 179 -14 0 -17 -4 -12 -17z"/>
<path d="M17266 27639 c-287 -159 -1329 -837 -1432 -932 -31 -28 -83 -84 -117
-126 -106 -132 -259 -293 -737 -774 l-465 -469 80 37 c105 48 89 36 330 250
342 304 554 504 580 544 39 63 350 335 525 459 105 75 403 299 720 542 162
124 356 272 430 327 189 141 252 203 207 203 -7 0 -61 -27 -121 -61z"/>
<path d="M17637 27220 c-54 -34 -134 -105 -148 -132 -16 -29 123 45 177 94 72
67 54 91 -29 38z"/>
<path d="M17099 27032 c-75 -75 -161 -171 -191 -212 -31 -41 -117 -154 -192
-250 -190 -244 -270 -363 -331 -498 -83 -182 -112 -230 -264 -442 -310 -431
-621 -828 -751 -961 -98 -99 -149 -177 -445 -679 -287 -485 -358 -599 -447
-718 -89 -119 -120 -175 -203 -377 -106 -258 -136 -326 -160 -366 -14 -21 -71
-78 -127 -126 -217 -186 -278 -253 -278 -303 0 -37 24 -55 71 -54 50 2 102 34
224 139 99 85 180 135 220 135 55 0 146 101 305 340 119 179 191 271 254 325
105 89 196 263 483 930 121 279 186 416 210 436 10 9 98 94 196 190 230 224
271 285 637 949 62 113 131 233 153 268 51 81 91 176 188 452 44 124 91 241
103 260 44 67 211 265 314 372 104 107 180 168 212 168 9 0 25 9 35 20 15 16
16 24 6 52 -12 35 -58 88 -75 88 -6 -1 -72 -62 -147 -138z"/>
<path d="M17479 26852 c-85 -76 -186 -173 -225 -215 l-71 -76 -77 -211 c-138
-377 -176 -496 -206 -647 -52 -263 -62 -413 -26 -413 21 0 109 99 154 175 100
169 171 378 231 684 52 259 64 291 150 378 54 55 79 91 114 164 49 102 120
289 114 296 -3 2 -74 -59 -158 -135z"/>
<path d="M15764 26899 c-70 -49 -99 -75 -126 -111 l-19 -28 46 20 c90 39 195
122 195 154 0 17 -43 1 -96 -35z"/>
<path d="M16590 26888 c-68 -46 -261 -202 -427 -345 -203 -174 -404 -353 -398
-353 57 0 468 317 763 587 138 128 171 187 62 111z"/>
<path d="M17712 26736 c-46 -52 -70 -131 -82 -263 -17 -183 -26 -221 -59 -259
-41 -46 -65 -130 -96 -332 -30 -195 -46 -265 -75 -323 -12 -22 -82 -140 -157
-262 -343 -561 -368 -610 -477 -952 -160 -506 -236 -793 -239 -907 -3 -103 64
-152 122 -89 16 17 32 43 35 57 14 52 190 554 283 804 130 349 219 552 297
675 128 204 310 605 364 805 20 73 55 244 86 420 68 386 85 660 42 660 -8 0
-27 -15 -44 -34z"/>
<path d="M15279 26711 c-182 -93 -512 -334 -1093 -799 -306 -245 -375 -305
-405 -352 -20 -31 -85 -151 -144 -266 -68 -133 -128 -236 -163 -280 -31 -38
-79 -107 -108 -154 -58 -94 -221 -389 -285 -517 l-41 -83 46 0 c66 0 153 49
239 136 144 146 295 387 501 802 l145 292 97 85 c53 46 266 217 472 381 579
458 787 638 849 731 17 26 31 50 31 55 0 20 -72 5 -141 -31z"/>
<path d="M14759 26000 c-409 -369 -749 -679 -755 -688 -14 -20 -127 -413 -121
-419 7 -7 66 70 162 212 177 259 298 414 357 457 18 12 44 21 64 20 45 -2 120
50 275 191 313 285 803 856 766 893 -2 3 -339 -297 -748 -666z"/>
<path d="M16449 26524 c-35 -31 -195 -163 -355 -295 -348 -286 -399 -332 -557
-508 -67 -75 -154 -171 -194 -213 -83 -90 -294 -403 -572 -848 -104 -168 -224
-352 -265 -410 -122 -171 -165 -270 -118 -270 44 0 128 81 272 260 46 58 107
130 135 161 162 178 662 885 747 1058 37 75 61 104 180 226 75 78 192 186 259
240 68 55 140 118 161 140 80 82 395 515 375 515 -2 0 -32 -25 -68 -56z"/>
<path d="M15259 25634 c-68 -72 -293 -209 -689 -419 -192 -102 -240 -134 -274
-178 -13 -17 -56 -102 -94 -187 -68 -155 -88 -192 -277 -530 -129 -230 -197
-374 -285 -605 -40 -104 -92 -226 -116 -270 -91 -171 -191 -475 -156 -475 14
0 84 98 312 435 202 299 275 400 329 460 46 50 106 148 301 485 175 304 243
412 309 490 26 30 77 93 113 140 82 106 176 197 248 243 85 53 148 131 249
305 40 69 75 142 68 142 -2 0 -19 -16 -38 -36z"/>
<path d="M16501 25492 c-55 -125 -148 -283 -231 -394 -86 -114 -100 -145 -61
-140 34 3 142 52 168 75 50 44 170 319 192 438 22 123 -18 135 -68 21z"/>
<path d="M17686 25198 c-66 -232 -106 -437 -141 -708 -27 -217 -76 -551 -126
-865 -16 -107 -58 -300 -94 -440 -79 -310 -99 -415 -91 -479 5 -49 28 -96 46
-96 20 0 51 84 94 261 25 101 54 210 66 241 11 31 54 193 95 360 95 380 112
443 137 492 19 37 21 68 28 435 7 308 12 415 25 481 19 92 17 208 -5 293 -14
51 -24 59 -34 25z"/>
<path d="M13233 25145 c-46 -33 -295 -385 -456 -646 -304 -494 -469 -964 -427
-1223 16 -101 24 -109 45 -45 10 30 46 117 80 194 59 133 113 244 460 965 228
474 332 716 323 755 -3 14 -5 14 -25 0z"/>
<path d="M16595 24993 c-206 -166 -436 -373 -651 -588 -211 -210 -245 -248
-272 -305 -71 -151 -341 -904 -358 -997 -13 -70 -52 -129 -181 -269 -70 -77
-159 -186 -197 -242 -87 -129 -248 -330 -361 -451 -68 -72 -96 -111 -125 -175
-89 -191 -271 -735 -297 -886 -15 -87 -15 -98 0 -132 14 -34 20 -38 52 -38 47
0 83 19 126 67 48 53 72 95 143 246 34 73 74 152 88 177 15 25 70 140 123 255
110 240 185 380 257 478 59 80 94 108 166 135 109 42 161 107 248 306 28 67
68 155 87 196 19 41 92 233 162 425 146 401 211 568 259 663 37 72 358 476
569 715 67 76 137 162 154 190 59 93 117 288 86 287 -5 0 -39 -26 -78 -57z"/>
<path d="M13747 24609 c-9 -6 -28 -31 -41 -57 -38 -74 -219 -307 -430 -552
-41 -47 -62 -82 -76 -127 -28 -91 -58 -252 -85 -464 -22 -178 -28 -200 -110
-455 -48 -148 -93 -281 -101 -295 -19 -37 -73 -66 -269 -144 -93 -37 -183 -77
-199 -88 -25 -18 -28 -25 -24 -62 3 -23 17 -68 32 -100 44 -96 166 -295 181
-295 21 0 51 48 85 136 73 188 83 207 114 223 51 28 76 62 141 196 71 146 145
329 233 580 71 202 62 165 107 451 42 278 51 309 103 371 46 56 135 197 258
413 113 200 136 250 122 267 -12 15 -17 16 -41 2z"/>
<path d="M17265 24376 c-33 -33 -81 -135 -144 -309 -27 -72 -63 -163 -81 -201
-96 -209 -380 -1142 -380 -1249 0 -55 -33 -144 -107 -292 -118 -238 -169 -316
-373 -575 -171 -216 -290 -408 -290 -466 0 -70 89 -39 192 67 142 147 468 621
584 850 34 68 164 356 220 489 36 86 122 395 243 876 61 241 127 492 146 557
43 145 55 246 32 266 -14 11 -20 9 -42 -13z"/>
<path d="M13042 24043 c-61 -86 -217 -439 -427 -969 -121 -303 -126 -317 -110
-340 8 -13 23 -24 33 -24 24 0 202 112 242 152 53 55 67 94 89 258 46 332 88
490 151 566 51 62 80 147 87 255 8 121 -20 165 -65 102z"/>
<path d="M16343 24001 c-83 -60 -221 -263 -348 -512 -91 -180 -158 -342 -224
-542 -48 -148 -115 -397 -107 -404 4 -5 132 137 228 253 310 375 551 842 566
1096 4 71 2 92 -12 113 -22 33 -53 32 -103 -4z"/>
<path d="M14300 23737 c-124 -98 -317 -319 -409 -470 -109 -178 -405 -607
-557 -807 -40 -53 -167 -188 -286 -305 -242 -239 -294 -305 -284 -358 17 -90
83 -112 170 -56 27 16 105 88 175 159 69 70 146 140 171 156 25 15 185 165
355 334 220 217 324 313 357 328 41 20 49 30 72 85 14 34 51 144 81 244 70
229 117 342 171 409 65 79 84 124 84 194 0 58 -20 130 -37 130 -4 0 -33 -20
-63 -43z"/>
<path d="M16233 22728 c-206 -199 -670 -817 -908 -1209 -87 -142 -165 -302
-178 -365 -11 -51 -10 -57 7 -70 35 -25 98 3 258 116 244 172 494 493 703 903
128 253 225 530 225 645 0 71 -15 69 -107 -20z"/>
<path d="M17133 22428 c-18 -13 -42 -41 -55 -62 -80 -136 -354 -525 -588 -836
-115 -153 -114 -151 -29 -92 283 198 482 457 603 787 56 153 58 157 89 192 34
38 25 43 -20 11z"/>
<path d="M15226 22196 c-107 -110 -387 -568 -701 -1145 -53 -97 -64 -126 -53
-133 7 -5 67 -7 133 -5 139 5 218 28 260 78 28 34 31 57 13 106 -24 66 15 171
230 618 145 304 193 420 195 479 3 58 -22 59 -77 2z"/>
<path d="M14205 22044 c-33 -25 -103 -74 -155 -109 -105 -69 -226 -188 -381
-375 -154 -184 -289 -368 -289 -393 0 -79 156 -183 318 -211 19 -3 47 0 66 8
70 29 111 110 147 293 25 129 39 162 113 273 85 125 256 490 256 544 0 24 -9
20 -75 -30z"/>
<path d="M13488 21969 c-56 -9 -91 -32 -148 -97 -95 -107 -309 -467 -290 -486
6 -6 45 -11 88 -10 97 0 157 28 230 109 63 68 101 136 182 319 51 114 59 141
48 151 -19 18 -57 23 -110 14z"/>
<path d="M19240 18240 l0 -1010 329 0 c411 0 551 10 676 51 165 52 265 138
335 284 70 146 75 189 75 620 -1 479 -14 592 -92 755 -47 98 -123 174 -223
223 -154 75 -251 87 -737 87 l-363 0 0 -1010z"/>
<path d="M10624 11931 c-243 -39 -371 -161 -427 -404 -20 -87 -21 -127 -24
-764 l-4 -673 630 0 631 0 0 613 c0 336 -5 655 -10 707 -32 297 -136 441 -366
505 -68 19 -347 29 -430 16z"/>
<path d="M13990 9695 l0 -2246 423 3 422 3 80 27 c99 34 158 70 213 133 81 93
122 207 142 404 14 141 14 3210 0 3352 -32 316 -138 464 -387 541 -63 20 -96
22 -480 25 l-413 5 0 -2247z"/>
<path d="M17830 9696 l0 -2246 378 0 c426 1 489 7 608 64 170 81 252 219 284
476 14 117 14 3284 0 3400 -39 312 -145 454 -395 526 -51 14 -120 18 -467 21
l-408 5 0 -2246z"/>
<path d="M9662 4898 l3 -303 50 -3 c43 -2 55 1 87 28 80 66 114 208 89 369
-22 141 -84 211 -186 211 l-45 0 2 -302z"/>
<path d="M18530 5095 c0 -63 2 -115 5 -115 13 0 61 29 76 46 51 59 9 184 -62
184 -17 0 -19 -9 -19 -115z"/>
<path d="M18542 4838 c-19 -19 -17 -237 2 -244 23 -9 82 24 95 52 29 65 0 175
-51 193 -37 13 -32 13 -46 -1z"/>
<path d="M11098 4843 c-14 -65 -25 -119 -24 -119 0 -1 25 -4 54 -8 49 -6 52
-6 52 16 0 32 -43 228 -50 228 -4 0 -18 -53 -32 -117z"/>
<path d="M15460 5180 c-6 -12 -9 -68 -8 -137 l3 -118 39 1 c60 2 99 47 104
121 5 72 -8 107 -50 133 -42 25 -74 25 -88 0z"/>
<path d="M19397 4950 c-8 -22 -47 -200 -47 -214 0 -15 89 -31 101 -19 4 5 -4
58 -17 118 -29 130 -30 134 -37 115z"/>
</g>
</svg>
